<svg xmlns="http://www.w3.org/2000/svg" viewBox="0 0 100 100"><style>.a{fill:#16181D}.b{fill:#6B4EFF}@media(prefers-color-scheme:dark){.a{fill:#EDEFF2}.b{fill:#8E7BFF}}</style><path class="a" d="M0 16 L0 18 Q0 23 5 23 L81.9 23 Q86.9 23 83.4 26.5 L51.9 58.1 Q46.9 63 53.9 63 L95 63 Q100 63 100 58 L100 16 Q100 0 84 0 L16 0 Q0 0 0 16 Z"/><path class="b" d="M100 84 L100 82 Q100 77 95 77 L18.1 77 Q13.1 77 16.6 73.5 L48.1 41.9 Q53.1 37 46.1 37 L5 37 Q0 37 0 42 L0 84 Q0 100 16 100 L84 100 Q100 100 100 84 Z"/></svg>