<svg xmlns="http://www.w3.org/2000/svg" viewBox="0 0 463.1 100" width="463.1" height="100"><g><path fill="#EDEFF2" d="M0 16 L0 18 Q0 23 5 23 L81.9 23 Q86.9 23 83.4 26.5 L51.9 58.1 Q46.9 63 53.9 63 L95 63 Q100 63 100 58 L100 16 Q100 0 84 0 L16 0 Q0 0 0 16 Z"/><path fill="#8E7BFF" d="M100 84 L100 82 Q100 77 95 77 L18.1 77 Q13.1 77 16.6 73.5 L48.1 41.9 Q53.1 37 46.1 37 L5 37 Q0 37 0 42 L0 84 Q0 100 16 100 L84 100 Q100 100 100 84 Z"/></g><g transform="translate(156 72) scale(0.062857 -0.062857)" fill="#EDEFF2"><path transform="translate(0 0)" d="M69.499755859375 0V700H505.300048828125V590.8492431640625H189.6005859375V405.57537841796875H480.42510986328125V296.42462158203125H189.6005859375V0Z"/><path transform="translate(521 0)" d="M226.27484130859375 -14Q173.62481689453125 -14 131.71231079101562 4.32501220703125Q89.7998046875 22.6500244140625 65.38729858398438 57.887542724609375Q40.97479248046875 93.12506103515625 40.97479248046875 143.60009765625Q40.97479248046875 194.2501220703125 65.38729858398438 228.31265258789062Q89.7998046875 262.37518310546875 132.86233520507812 279.6127014160156Q175.92486572265625 296.8502197265625 230.87493896484375 296.8502197265625H374.22442626953125V326.77508544921875Q374.22442626953125 365.97479248046875 350.12457275390625 390.3121643066406Q326.02471923828125 414.6495361328125 275.0499267578125 414.6495361328125Q225.07513427734375 414.6495361328125 199.53781127929688 391.399658203125Q174.00048828125 368.1497802734375 165.9505615234375 330.82501220703125L60.099853515625 365.97528076171875Q72.099853515625 404.8502197265625 98.51235961914062 436.87518310546875Q124.92486572265625 468.900146484375 169.16238403320312 488.57513427734375Q213.39990234375 508.2501220703125 276.699951171875 508.2501220703125Q373.6500244140625 508.2501220703125 429.5126037597656 459.42510986328125Q485.37518310546875 410.60009765625 485.37518310546875 318.82501220703125V124.900634765625Q485.37518310546875 94.900634765625 513.3751831054688 94.900634765625H554.60009765625V0H474.099853515625Q438.1497802734375 0 415.19970703125 18.087493896484375Q392.2496337890625 36.17498779296875 392.2496337890625 66.52496337890625V68.57489013671875H374.82452392578125Q369.2496337890625 54.82501220703125 354.1122131347656 35.062530517578125Q338.97479248046875 15.300048828125 308.4498291015625 0.6500244140625Q277.92486572265625 -14 226.27484130859375 -14ZM245.12506103515625 79.6005859375Q302.32476806640625 79.6005859375 338.27459716796875 112.07537841796875Q374.22442626953125 144.5501708984375 374.22442626953125 199.8497314453125V210.19970703125H238.47503662109375Q200.500244140625 210.19970703125 177.96292114257812 193.88729858398438Q155.42559814453125 177.57489013671875 155.42559814453125 147.07513427734375Q155.42559814453125 116.57537841796875 178.96292114257812 98.08798217773438Q202.500244140625 79.6005859375 245.12506103515625 79.6005859375Z"/><path transform="translate(1081 0)" d="M304.22491455078125 -14Q232.39990234375 -14 174.42486572265625 16.087493896484375Q116.4498291015625 46.17498779296875 82.7998046875 103.17498779296875Q49.1497802734375 160.17498779296875 49.1497802734375 240.47503662109375V253.77508544921875Q49.1497802734375 334.2501220703125 82.7998046875 391.1626281738281Q116.4498291015625 448.07513427734375 174.42486572265625 478.1626281738281Q232.39990234375 508.2501220703125 304.22491455078125 508.2501220703125Q375.0499267578125 508.2501220703125 425.6124572753906 482.9876403808594Q476.17498779296875 457.72515869140625 506.97503662109375 414.400146484375Q537.7750854492188 371.07513427734375 547.2501220703125 317.47503662109375L436.27435302734375 293.92486572265625Q432.099365234375 325.499755859375 417.0494384765625 350.9871520996094Q401.99951171875 376.47454833984375 374.6621398925781 391.4369812011719Q347.32476806640625 406.3994140625 306.699951171875 406.3994140625Q266.07513427734375 406.3994140625 233.56277465820312 388.49951171875Q201.0504150390625 370.599609375 182.32550048828125 335.999755859375Q163.6005859375 301.39990234375 163.6005859375 251.9500732421875V242.300048828125Q163.6005859375 192.8502197265625 182.32550048828125 158.2503662109375Q201.0504150390625 123.6505126953125 233.56277465820312 105.7506103515625Q266.07513427734375 87.8507080078125 306.699951171875 87.8507080078125Q367.72467041015625 87.8507080078125 399.4120178222656 119.4505615234375Q431.099365234375 151.0504150390625 439.4493408203125 201.1502685546875L550.4251098632812 175.12506103515625Q538.1250610351562 123.17498779296875 507.1500244140625 79.8499755859375Q476.17498779296875 36.52496337890625 425.6124572753906 11.262481689453125Q375.0499267578125 -14 304.22491455078125 -14Z"/><path transform="translate(1647 0)" d="M260.699951171875 0Q213.4498291015625 0 184.87469482421875 28.662628173828125Q156.299560546875 57.32525634765625 156.299560546875 105.700439453125V398.99951171875H26.699951171875V494.2501220703125H156.299560546875V653.1497802734375H270.7503662109375V494.2501220703125H412.699951171875V398.99951171875H270.7503662109375V125.2506103515625Q270.7503662109375 95.2506103515625 299.100341796875 95.2506103515625H398.2501220703125V0Z"/><path transform="translate(2080 0)" d="M306.699951171875 -14Q232.699951171875 -14 174.31240844726562 16.262481689453125Q115.92486572265625 46.52496337890625 82.53732299804688 103.43746948242188Q49.1497802734375 160.3499755859375 49.1497802734375 239.47503662109375V254.77508544921875Q49.1497802734375 333.900146484375 82.53732299804688 390.8126525878906Q115.92486572265625 447.72515869140625 174.31240844726562 477.9876403808594Q232.699951171875 508.2501220703125 306.699951171875 508.2501220703125Q380.699951171875 508.2501220703125 439.0874938964844 477.9876403808594Q497.47503662109375 447.72515869140625 530.8625793457031 390.8126525878906Q564.2501220703125 333.900146484375 564.2501220703125 254.77508544921875V239.47503662109375Q564.2501220703125 160.3499755859375 530.8625793457031 103.43746948242188Q497.47503662109375 46.52496337890625 439.0874938964844 16.262481689453125Q380.699951171875 -14 306.699951171875 -14ZM306.699951171875 87.8507080078125Q369.599609375 87.8507080078125 409.699462890625 128.32550048828125Q449.79931640625 168.80029296875 449.79931640625 242.300048828125V251.9500732421875Q449.79931640625 325.4498291015625 410.1119689941406 365.92462158203125Q370.42462158203125 406.3994140625 306.699951171875 406.3994140625Q243.97528076171875 406.3994140625 203.78793334960938 365.92462158203125Q163.6005859375 325.4498291015625 163.6005859375 251.9500732421875V242.300048828125Q163.6005859375 168.80029296875 203.78793334960938 128.32550048828125Q243.97528076171875 87.8507080078125 306.699951171875 87.8507080078125Z"/><path transform="translate(2687 0)" d="M73.1497802734375 0V494.2501220703125H185.6005859375V437.37518310546875H202.5506591796875Q214.07562255859375 467.900146484375 239.92559814453125 482.07513427734375Q265.77557373046875 496.2501220703125 302.400390625 496.2501220703125H361.87542724609375V394.0494384765625H299.52545166015625Q250.300537109375 394.0494384765625 218.9505615234375 367.5870056152344Q187.6005859375 341.12457275390625 187.6005859375 285.8497314453125V0Z"/><path transform="translate(3072 0)" fill="#8E7BFF" d="M47.0499267578125 0V154.0009765625L403.899169921875 577.5491943359375V592.499267578125H57.39990234375V700H528.2501220703125V545.9990234375L171.40087890625 122.4508056640625V107.500732421875H531.6500244140625V0Z"/><path transform="translate(3632 0)" fill="#8E7BFF" d="M298.7998046875 -14Q224.62481689453125 -14 168.2998046875 17.5Q111.97479248046875 49 80.56228637695312 106.41250610351562Q49.1497802734375 163.82501220703125 49.1497802734375 241.12506103515625V253.12506103515625Q49.1497802734375 330.60009765625 80.1497802734375 387.92510986328125Q111.1497802734375 445.2501220703125 166.88729858398438 476.7501220703125Q222.62481689453125 508.2501220703125 295.92486572265625 508.2501220703125Q368.0499267578125 508.2501220703125 421.7874450683594 476.4500732421875Q475.52496337890625 444.6500244140625 505.52496337890625 387.8499755859375Q535.5249633789062 331.0499267578125 535.5249633789062 255.39990234375V214.32476806640625H165.2506103515625Q167.42559814453125 156.32525634765625 206.31289672851562 121.26296997070312Q245.2001953125 86.20068359375 302.099853515625 86.20068359375Q357.72467041015625 86.20068359375 384.9120178222656 110.6005859375Q412.099365234375 135.00048828125 426.32427978515625 165.97528076171875L520.7498779296875 117.22491455078125Q506.57489013671875 90 480.07489013671875 59.32501220703125Q453.57489013671875 28.6500244140625 409.92486572265625 7.32501220703125Q366.27484130859375 -14 298.7998046875 -14ZM166.2506103515625 300.97528076171875H419.2491455078125Q415.2491455078125 350.27484130859375 381.8618469238281 379.1621398925781Q348.47454833984375 408.0494384765625 295.099853515625 408.0494384765625Q240.2501220703125 408.0494384765625 207.100341796875 379.1621398925781Q173.9505615234375 350.27484130859375 166.2506103515625 300.97528076171875Z"/><path transform="translate(4207 0)" fill="#8E7BFF" d="M73.1497802734375 0V494.2501220703125H185.6005859375V424.87542724609375H202.5506591796875Q215.6005859375 453.1502685546875 250.00048828125 477.87518310546875Q284.400390625 502.60009765625 353.32525634765625 502.60009765625Q410.4503173828125 502.60009765625 454.0378112792969 476.8875427246094Q497.62530517578125 451.17498779296875 522.0627746582031 405.02496337890625Q546.500244140625 358.87493896484375 546.500244140625 296V0H432.0494384765625V287.0499267578125Q432.0494384765625 347.2496337890625 402.3620910644531 376.47454833984375Q372.67474365234375 405.699462890625 318.87493896484375 405.699462890625Q257.900146484375 405.699462890625 222.7503662109375 365.27459716796875Q187.6005859375 324.8497314453125 187.6005859375 250.42510986328125V0Z"/></g></svg>